<svg width="200" height="200" viewBox="0 0 200 200" fill="none" xmlns="http://www.w3.org/2000/svg">
<g clip-path="url(#clip0_202_37)">
<circle cx="100" cy="100" r="100" fill="#3568DC"/>
<path d="M102.641 74.9951C104.024 72.0982 107.428 70.8192 110.358 72.04L110.641 72.166L111.132 72.4053C116.191 74.9146 120.601 78.5662 124.011 83.0742C127.53 87.7275 129.882 93.1577 130.868 98.9082C131.854 104.659 131.445 110.562 129.677 116.122C127.908 121.682 124.831 126.734 120.704 130.858L120.705 130.859L90.2441 161.32C83.4063 168.158 74.132 172 64.4619 172C54.7917 172 45.5176 168.158 38.6797 161.32C31.8418 154.482 28 145.208 28 135.538C28.0001 125.868 31.8419 116.594 38.6797 109.756L50.5732 97.8623L59.0586 106.348L47.165 118.241C42.5777 122.829 40.0001 129.051 40 135.538C40 142.026 42.5776 148.248 47.165 152.835C51.7525 157.422 57.9743 160 64.4619 160C70.9494 160 77.1714 157.422 81.7588 152.835L112.222 122.372C114.99 119.605 117.055 116.214 118.241 112.484C119.428 108.754 119.702 104.794 119.04 100.936C118.379 97.0776 116.802 93.4343 114.44 90.3125C112.227 87.3857 109.384 84.9971 106.127 83.3203L105.471 82.9951L105.195 82.8545C102.404 81.3436 101.257 77.8921 102.641 74.9951ZM50.5732 97.8623C52.9164 95.5195 56.7156 95.5193 59.0586 97.8623C61.4015 100.205 61.4014 104.005 59.0586 106.348L50.5732 97.8623ZM149.427 102.138C147.084 104.481 143.284 104.481 140.941 102.138C138.598 99.7947 138.599 95.9955 140.941 93.6523L149.427 102.138ZM160 64.4619C160 57.9743 157.422 51.7525 152.835 47.165C148.248 42.5776 142.026 40 135.538 40C129.051 40.0001 122.829 42.5777 118.241 47.165L87.7783 77.6279C85.0096 80.3948 82.9453 83.7856 81.7588 87.5156C80.5722 91.2458 80.2985 95.2064 80.96 99.0645C81.6215 102.922 83.1983 106.566 85.5596 109.688C87.9208 112.809 90.9971 115.318 94.5293 117.005C97.5197 118.433 98.7871 122.015 97.3594 125.005C95.9316 127.995 92.3497 129.262 89.3594 127.834C84.0942 125.32 79.509 121.579 75.9893 116.926C72.4696 112.272 70.1178 106.842 69.1318 101.092C68.1459 95.3412 68.5546 89.4379 70.3232 83.8779C72.0918 78.318 75.1689 73.2638 79.2959 69.1396L109.756 38.6797C116.594 31.8419 125.868 28.0001 135.538 28C145.208 28 154.482 31.8418 161.32 38.6797C168.158 45.5176 172 54.7917 172 64.4619C172 74.132 168.158 83.4063 161.32 90.2441L149.427 102.138L140.941 93.6523L152.835 81.7588C157.422 77.1714 160 70.9494 160 64.4619Z" fill="#FEFEFE"/>
</g>
<defs>
<clipPath id="clip0_202_37">
<rect width="200" height="200" fill="white"/>
</clipPath>
</defs>
</svg>
